<?xml version="1.0" encoding="utf-8"?>
<!-- Generator: Adobe Illustrator 16.0.0, SVG Export Plug-In . SVG Version: 6.00 Build 0)  -->
<!DOCTYPE svg PUBLIC "-//W3C//DTD SVG 1.1//EN" "http://www.w3.org/Graphics/SVG/1.1/DTD/svg11.dtd">
<svg version="1.1" id="Layer_1" xmlns="http://www.w3.org/2000/svg" xmlns:xlink="http://www.w3.org/1999/xlink" x="0px" y="0px"
	 width="8px" height="10.09px" viewBox="0 0 8 10.09" enable-background="new 0 0 8 10.09" xml:space="preserve">
<path fill="#E6E7E8" d="M4,10.053c2.16,0,3.921-1.762,3.921-3.921c0-2.16-1.762-3.921-3.921-3.921c-2.16,0-3.921,1.761-3.921,3.921
	C0.079,8.292,1.84,10.053,4,10.053z"/>
<polygon fill="#E6E7E8" points="0.573,5.069 7.424,5.069 7.424,5.069 4,0.037 "/>
<path fill="#1994D2" d="M4,9.332c1.762,0,3.199-1.439,3.199-3.2C7.199,4.37,5.762,2.933,4,2.933c-1.762,0-3.199,1.437-3.199,3.199
	C0.801,7.893,2.238,9.332,4,9.332z"/>
</svg>
