<?xml version="1.0" encoding="utf-8"?>
<!-- Generator: Adobe Illustrator 16.0.0, SVG Export Plug-In . SVG Version: 6.00 Build 0)  -->
<!DOCTYPE svg PUBLIC "-//W3C//DTD SVG 1.1//EN" "http://www.w3.org/Graphics/SVG/1.1/DTD/svg11.dtd">
<svg version="1.1" id="Layer_1" xmlns="http://www.w3.org/2000/svg" xmlns:xlink="http://www.w3.org/1999/xlink" x="0px" y="0px"
	 width="347.979px" height="444.407px" viewBox="0 0 347.979 444.407" enable-background="new 0 0 347.979 444.407"
	 xml:space="preserve">
<g>
	<path fill-rule="evenodd" clip-rule="evenodd" fill="#E6E7E8" d="M173.99,444.407c95.83,0,173.99-78.16,173.99-173.99
		S269.819,96.428,173.99,96.428C78.159,96.428,0,174.587,0,270.417S78.159,444.407,173.99,444.407z"/>
	<polygon fill-rule="evenodd" clip-rule="evenodd" fill="#E6E7E8" points="21.995,223.262 325.983,223.262 325.983,223.262 
		173.99,0 21.995,223.262 	"/>
	<path fill-rule="evenodd" clip-rule="evenodd" fill="#0095DA" d="M173.99,428.141c86.871,0,157.723-70.853,157.723-157.724
		S260.86,112.693,173.99,112.693c-86.871,0-157.724,70.853-157.724,157.724S87.119,428.141,173.99,428.141z"/>
	<polygon fill-rule="evenodd" clip-rule="evenodd" fill="#0095DA" points="66.315,190.712 281.663,190.712 281.663,190.712 
		173.99,32.55 66.315,190.712 	"/>
</g>
</svg>
